<svg xmlns="http://www.w3.org/2000/svg" fill-rule="evenodd" stroke-linejoin="round" stroke-miterlimit="2" clip-rule="evenodd" viewBox="0 0 512 512"><circle id="background" cx="366" cy="76.129" r="99.945" fill="#498fb1" transform="translate(-681.475 61.0013) scale(2.56141)"/><path id="yin" fill="#252627" fill-rule="nonzero" d="M.23-.532C.176-.556.136-.535.13-.531c-.069.048-.039.104-.012.115.044.016.046.052.044.067-.002.026-.034.044-.054.046C.035-.298.002-.379.022-.445.04-.503.081-.539.118-.55c.066-.02.112.018.112.018z" transform="rotate(-4.7521 10920.2323 -463.7277) scale(1521.47)"/><path id="yang" fill="#f9fcff" fill-rule="nonzero" d="M.23-.532C.176-.556.136-.535.13-.531c-.069.048-.039.104-.012.115.044.016.046.052.044.067-.002.026-.034.044-.054.046C.035-.298.002-.379.022-.445.04-.503.081-.539.118-.55c.066-.02.112.018.112.018z" transform="rotate(175.2479 226.1362 -186.5132) scale(1521.47)"/></svg>